<?xml version="1.0" encoding="utf-8"?>
<svg viewBox="0 124.451 500 248.609" xmlns="http://www.w3.org/2000/svg">
  <g transform="matrix(0.024488002061843872, 0, 0, -0.024488002061843872, 15.371825447258743, 489.47217526245373)" fill="white" stroke="none" style="">
    <path d="M 6515 14460 C 6753 14381 6826 14360 6871 14360 C 6933 14360 7146 14394 7215 14415 C 7255 14427 7263 14426 7309 14405 C 7347 14387 7364 14372 7380 14340 C 7422 14259 7476 14182 7625 13995 C 7708 13891 7791 13778 7809 13746 C 7831 13707 7893 13518 7996 13179 L 8151 12670 L 8129 12640 C 8110 12614 8100 12610 8061 12610 C 8016 12610 7944 12647 7907 12688 C 7899 12697 7815 12871 7722 13073 C 7620 13294 7535 13463 7511 13495 C 7489 13524 7371 13635 7250 13742 C 6962 13994 6995 13980 6615 14008 C 6400 14024 6303 14027 6240 14020 C 6193 14016 5951 13980 5702 13940 L 5249 13869 L 5182 13887 C 5092 13912 4880 14058 4880 14095 C 4880 14108 4884 14121 4889 14125 C 4894 14128 5175 14157 5512 14190 C 5849 14223 6181 14257 6250 14266 C 6503 14298 6505 14302 6310 14400 C 6197 14457 6151 14474 6082 14487 C 6034 14495 5991 14506 5986 14510 C 5982 14515 6013 14526 6056 14535 C 6100 14544 6140 14553 6145 14555 C 6179 14567 6247 14549 6515 14460 Z M 13118 14534 C 13159 14525 13188 14514 13183 14510 C 13179 14506 13136 14495 13088 14487 C 13019 14474 12973 14457 12860 14400 C 12665 14302 12667 14298 12920 14266 C 12989 14257 13322 14223 13659 14190 C 14079 14149 14276 14126 14282 14117 C 14301 14087 14286 14069 14173 13989 C 14083 13926 14039 13902 13988 13888 L 13921 13869 L 13443 13944 C 13180 13984 12931 14021 12890 14024 C 12845 14027 12701 14020 12530 14006 C 12274 13985 12239 13980 12190 13957 C 12121 13925 11722 13578 11658 13493 C 11628 13454 11559 13316 11445 13070 C 11353 12869 11270 12697 11262 12688 C 11227 12647 11154 12610 11107 12610 C 11067 12610 11058 12614 11040 12641 L 11018 12671 L 11170 13173 C 11254 13449 11335 13700 11351 13731 C 11366 13763 11450 13877 11537 13987 C 11700 14191 11742 14251 11781 14332 C 11800 14371 11812 14383 11856 14403 C 11909 14427 11910 14427 11977 14409 C 12084 14382 12228 14360 12294 14360 C 12345 14360 12404 14377 12650 14460 C 12975 14570 12969 14569 13118 14534 Z M 6130 12940 C 6281 12884 6457 12816 6520 12790 C 6635 12742 7431 12384 7434 12378 C 7436 12376 7458 12346 7485 12311 L 7533 12248 L 7674 11306 L 7815 10365 L 7815 9600 L 7815 8835 L 7673 7892 L 7532 6949 L 7484 6887 C 7458 6853 7435 6824 7434 6822 C 7431 6817 6646 6463 6550 6423 C 6503 6403 6330 6336 6165 6273 C 5884 6166 5859 6159 5775 6153 L 5685 6148 L 5245 6283 C 4870 6399 4790 6421 4700 6430 C 4609 6439 4520 6435 4010 6400 L 3425 6360 L 3197 6404 L 2969 6449 L 2877 6526 C 2826 6568 2784 6606 2782 6611 C 2780 6615 2791 6622 2805 6626 C 2823 6630 2872 6620 2955 6595 L 3078 6557 L 3386 6605 C 3556 6631 3698 6654 3703 6657 C 3730 6673 3680 6732 3592 6787 C 3518 6833 3510 6835 2849 7000 C 2205 7161 2178 7169 2105 7212 C 2032 7255 2007 7282 1549 7805 C 1285 8107 1071 8358 1073 8364 C 1085 8400 1119 8386 2060 7968 C 2585 7734 3050 7533 3092 7521 C 3140 7508 3473 7460 3967 7395 C 4988 7262 4902 7271 5280 7256 L 5605 7243 L 5692 7266 C 5771 7287 5802 7304 6042 7457 C 6301 7623 6306 7627 6354 7697 L 6403 7768 L 6492 8197 C 6541 8432 6587 8668 6595 8720 C 6603 8772 6617 8992 6626 9207 C 6641 9570 6641 9630 6626 9992 C 6617 10208 6603 10428 6595 10480 C 6587 10532 6541 10768 6492 11003 L 6403 11432 L 6354 11503 C 6306 11573 6301 11577 6043 11742 C 5699 11962 5708 11960 5365 11949 C 5233 11944 5062 11936 4985 11930 C 4755 11913 3179 11703 3092 11679 C 3050 11666 2585 11466 2060 11232 C 1122 10816 1085 10801 1073 10836 C 1071 10842 1285 11093 1549 11395 C 2007 11918 2032 11945 2105 11988 C 2178 12031 2205 12039 2849 12200 C 3510 12365 3518 12367 3592 12413 C 3679 12468 3730 12527 3703 12543 C 3698 12546 3556 12569 3386 12595 L 3077 12643 L 2955 12605 C 2840 12570 2780 12564 2780 12588 C 2780 12592 2823 12631 2875 12673 L 2970 12751 L 3199 12795 L 3428 12840 L 4011 12800 C 4521 12765 4607 12761 4700 12770 C 4793 12780 4864 12799 5236 12915 L 5665 13049 L 5760 13046 C 5853 13043 5861 13041 6130 12940 Z M 13928 12915 C 14303 12800 14380 12779 14470 12770 C 14562 12761 14652 12765 15159 12800 L 15743 12840 L 15972 12795 L 16201 12749 L 16293 12673 C 16344 12631 16386 12593 16388 12589 C 16390 12584 16380 12578 16365 12574 C 16347 12570 16297 12580 16213 12605 L 16088 12642 L 15774 12594 C 15532 12557 15460 12543 15460 12532 C 15460 12504 15502 12460 15575 12414 L 15650 12366 L 16320 12200 L 16990 12033 L 17069 11984 C 17143 11938 17174 11905 17623 11391 C 18024 10932 18097 10844 18089 10828 C 18084 10818 18075 10810 18069 10810 C 18064 10810 17633 11000 17112 11231 C 16549 11482 16131 11662 16080 11676 C 16012 11695 14769 11866 14265 11925 C 14232 11929 14061 11938 13885 11945 L 13565 11957 L 13475 11933 C 13392 11911 13365 11896 13126 11742 C 12880 11584 12864 11572 12817 11507 L 12767 11438 L 12673 10987 C 12622 10738 12573 10479 12565 10410 C 12558 10341 12546 10121 12539 9920 C 12529 9605 12530 9503 12544 9175 C 12553 8966 12567 8755 12575 8705 C 12583 8656 12629 8423 12678 8187 L 12768 7760 L 12817 7692 C 12863 7629 12880 7616 13125 7458 C 13364 7305 13392 7289 13475 7267 L 13565 7243 L 13885 7255 C 14061 7262 14232 7271 14265 7275 C 14298 7279 14701 7331 15160 7391 C 15726 7465 16022 7507 16080 7524 C 16130 7538 16559 7723 17113 7969 C 17634 8200 18064 8390 18070 8390 C 18075 8390 18084 8382 18089 8372 C 18098 8356 18027 8270 17623 7809 C 17167 7286 17145 7263 17066 7215 L 16985 7165 L 16320 7001 L 15655 6836 L 15571 6781 C 15487 6725 15447 6679 15465 6661 C 15471 6656 15613 6630 15782 6605 L 16088 6558 L 16213 6595 C 16297 6620 16347 6630 16365 6626 C 16380 6622 16390 6615 16388 6611 C 16386 6606 16343 6568 16293 6526 L 16200 6450 L 15971 6405 L 15742 6360 L 15159 6400 C 14644 6435 14562 6439 14467 6429 C 14373 6420 14301 6401 13922 6283 L 13485 6148 L 13399 6153 C 13321 6157 13291 6166 13039 6260 C 12671 6398 12619 6420 12145 6634 L 11735 6819 L 11685 6888 L 11635 6956 L 11497 7895 C 11421 8412 11355 8887 11350 8950 C 11337 9107 11338 10096 11351 10256 C 11356 10327 11423 10804 11498 11316 L 11636 12247 L 11685 12314 L 11735 12381 L 12145 12566 C 12619 12780 12633 12786 13005 12927 C 13314 13044 13325 13047 13423 13049 C 13484 13050 13538 13036 13928 12915 Z M 8500 10785 C 8657 10622 8649 10650 8700 10080 C 8753 9482 8756 9458 8845 8979 C 8949 8421 8946 8450 8981 7925 L 9012 7455 L 8990 7000 C 8963 6447 8974 6491 8802 6263 C 8736 6176 8617 6002 8538 5876 C 8357 5586 8357 5586 8161 5554 C 8080 5541 8003 5522 7970 5507 C 7938 5493 7788 5384 7615 5250 C 7450 5121 7303 5012 7289 5007 C 7270 4999 7246 5002 7196 5015 C 7159 5025 7127 5037 7124 5041 C 7121 5046 7126 5063 7135 5079 C 7146 5101 7159 5110 7183 5114 C 7200 5116 7237 5122 7264 5127 L 7314 5135 L 7411 5275 C 7482 5377 7506 5419 7500 5431 C 7492 5445 7455 5441 7168 5394 C 6898 5351 6835 5338 6790 5315 C 6759 5300 6679 5236 6610 5174 C 6541 5111 6479 5060 6472 5060 C 6466 5060 6441 5098 6419 5143 L 6377 5227 L 6422 5321 C 6501 5485 6473 5468 7160 5761 C 7487 5900 7782 6030 7815 6049 C 7914 6106 8306 6409 8353 6464 C 8412 6533 8486 6649 8511 6713 C 8524 6747 8548 6886 8580 7111 C 8639 7530 8640 7520 8530 7662 C 8414 7812 8423 7728 8415 8769 C 8409 9622 8407 9692 8375 10269 C 8342 10841 8341 10876 8357 10888 C 8367 10895 8379 10899 8385 10898 C 8390 10896 8442 10846 8500 10785 Z M 10812 10888 C 10827 10876 10826 10828 10794 10285 C 10761 9716 10760 9662 10754 8790 C 10747 7736 10756 7819 10640 7665 C 10529 7518 10530 7528 10585 7128 C 10614 6920 10639 6771 10653 6730 C 10679 6652 10790 6481 10851 6424 C 10915 6365 11284 6088 11355 6047 C 11388 6028 11683 5899 12010 5760 C 12697 5468 12669 5484 12745 5322 L 12789 5230 L 12750 5145 C 12728 5097 12705 5060 12697 5060 C 12689 5060 12627 5111 12559 5174 C 12490 5237 12411 5299 12381 5315 C 12336 5337 12273 5351 12021 5391 C 11712 5441 11665 5445 11665 5422 C 11665 5415 11708 5347 11760 5271 L 11855 5131 L 11910 5125 C 12009 5114 12020 5110 12036 5078 C 12044 5062 12049 5045 12045 5042 C 12035 5032 11926 5000 11900 5000 C 11883 5000 11781 5073 11565 5241 C 11389 5377 11231 5492 11200 5507 C 11166 5522 11094 5539 11015 5552 C 10902 5570 10878 5577 10830 5608 C 10779 5640 10765 5658 10660 5828 C 10521 6053 10453 6153 10337 6305 C 10199 6484 10206 6457 10179 6994 L 10157 7449 L 10184 7867 C 10220 8422 10219 8417 10315 8935 C 10420 9501 10410 9432 10465 10040 C 10521 10657 10510 10618 10672 10790 C 10729 10850 10780 10900 10786 10900 C 10791 10900 10804 10894 10812 10888 Z"/>
  </g>
</svg>